# xmcd CD database file
#
# Track frame offsets:
#	150
#	30915
#	45350
#	75583
#	100988
#	128395
#	161685
#	186678
#
# Disc length: 2883 seconds
#
# Revision: 0
# Processed by: cddbd v1.5PL3 Copyright (c) Steve Scherf et al.
# Submitted via: CDex 1.51
#
DISCID=570b4108
DTITLE=Ryan Kisor - Donna Lee
DYEAR=2004
DGENRE=Jazz
TTITLE0=Song For My Father
TTITLE1=Donna Lee
TTITLE2=Short Story
TTITLE3=Up Your Tempo
TTITLE4=Rip Tide
TTITLE5=I Had The Craziest Dream
TTITLE6=Work Song
TTITLE7=Zingaro
EXTD=YEAR: 2004
EXTT0=
EXTT1=
EXTT2=
EXTT3=
EXTT4=
EXTT5=
EXTT6=
EXTT7=
PLAYORDER=
